HIERARCHY
ROOT root
{
	OFFSET 0.000000 0.000000 0.000000
	CHANNELS 6 Xposition Yposition Zposition Zrotation Yrotation Xrotation
	JOINT lhip
	{
		OFFSET 0.058581 -0.082280 -0.017664
		CHANNELS 3 Zrotation Yrotation Xrotation
		JOINT lknee
		{
			OFFSET 0.043451 -0.386469 0.008037
			CHANNELS 3 Zrotation Yrotation Xrotation
			JOINT lankle
			{
				OFFSET -0.014790 -0.426874 -0.037428
				CHANNELS 3 Zrotation Yrotation Xrotation
				JOINT ltoe
				{
					OFFSET 0.041054 -0.060286 0.122042
					CHANNELS 3 Zrotation Yrotation Xrotation
					End Site
					{
						OFFSET 0.000000 0.000000 0.000000
					}
				}
			}
		}
	}
	JOINT rhip
	{
		OFFSET -0.060310 -0.090513 -0.013543
		CHANNELS 3 Zrotation Yrotation Xrotation
		JOINT rknee
		{
			OFFSET -0.043257 -0.383688 -0.004843
			CHANNELS 3 Zrotation Yrotation Xrotation
			JOINT rankle
			{
				OFFSET 0.019056 -0.420046 -0.034562
				CHANNELS 3 Zrotation Yrotation Xrotation
				JOINT rtoe
				{
					OFFSET -0.034840 -0.062106 0.130323
					CHANNELS 3 Zrotation Yrotation Xrotation
					End Site
					{
						OFFSET 0.000000 0.000000 0.000000
					}
				}
			}
		}
	}
	JOINT lowerback
	{
		OFFSET 0.004439 0.124404 -0.038385
		CHANNELS 3 Zrotation Yrotation Xrotation
		JOINT upperback
		{
			OFFSET 0.004488 0.137956 0.026820
			CHANNELS 3 Zrotation Yrotation Xrotation
			JOINT chest
			{
				OFFSET -0.002265 0.056032 0.002855
				CHANNELS 3 Zrotation Yrotation Xrotation
				JOINT lowerneck
				{
					OFFSET -0.013390 0.211636 -0.033468
					CHANNELS 3 Zrotation Yrotation Xrotation
					JOINT upperneck
					{
						OFFSET 0.010113 0.088937 0.050410
						CHANNELS 3 Zrotation Yrotation Xrotation
						End Site
						{
							OFFSET 0.000000 0.000000 0.000000
						}
					}
				}
				JOINT lclavicle
				{
					OFFSET 0.071702 0.114000 -0.018898
					CHANNELS 3 Zrotation Yrotation Xrotation
					JOINT lshoulder
					{
						OFFSET 0.122921 0.045205 -0.019046
						CHANNELS 3 Zrotation Yrotation Xrotation
						JOINT lelbow
						{
							OFFSET 0.255332 -0.015649 -0.022946
							CHANNELS 3 Zrotation Yrotation Xrotation
							JOINT lwrist
							{
								OFFSET 0.265709 0.012698 -0.007375
								CHANNELS 3 Zrotation Yrotation Xrotation
								End Site
								{
									OFFSET 0.000000 0.000000 0.000000
								}
							}
						}
					}
				}
				JOINT rclavicle
				{
					OFFSET -0.082954 0.112472 -0.023707
					CHANNELS 3 Zrotation Yrotation Xrotation
					JOINT rshoulder
					{
						OFFSET -0.113228 0.046853 -0.008472
						CHANNELS 3 Zrotation Yrotation Xrotation
						JOINT relbow
						{
							OFFSET -0.260127 -0.014369 -0.031269
							CHANNELS 3 Zrotation Yrotation Xrotation
							JOINT rwrist
							{
								OFFSET -0.269108 0.006794 -0.006027
								CHANNELS 3 Zrotation Yrotation Xrotation
								End Site
								{
									OFFSET 0.000000 0.000000 0.000000
								}
							}
						}
					}
				}
			}
		}
	}
}
MOTION
Frames: 5
Frame Time: 0.033333
-0.336093 -0.263130 0.981265 165.984939 3.573320 93.787585 11.505607 6.892228 -13.803575 -4.106303 2.749843 11.459648 2.299239 7.723353 -7.622088 0.000000 -0.000000 0.000000 -5.133898 -3.268203 -19.532870 0.322966 0.499988 17.706902 4.186740 -4.339942 -8.222722 0.000000 -0.000000 0.000000 -4.250090 3.900191 29.154700 -0.749222 -2.749819 -0.336285 -0.309069 0.071630 2.448497 -4.790821 13.761630 7.105007 -0.192788 4.390042 20.897589 -19.085497 -19.489186 -1.274263 -45.594631 -30.017551 9.875863 7.059760 -39.471988 19.935791 25.100290 -14.993801 12.081499 22.111309 17.338632 3.309481 55.661317 8.170607 22.296132 -15.332603 70.530668 9.970595 -16.299520 16.750045 -9.596467 
-0.335903 -0.263686 0.981234 165.923386 3.548649 93.760483 11.505385 6.912746 -13.746708 -4.120780 2.781149 11.393764 2.336612 7.736163 -7.662556 0.000000 -0.000000 0.000000 -5.166835 -3.113479 -19.505778 0.355411 0.538880 17.645776 4.228007 -4.511774 -8.209702 0.000000 -0.000000 0.000000 -4.427660 3.887844 29.163877 -0.768374 -2.677107 -0.426488 -0.247096 0.064716 2.515696 -4.488638 13.922795 7.189464 -0.383491 4.277093 20.976147 -18.993630 -19.495392 -1.127696 -45.267404 -30.361645 9.760562 6.446586 -38.985137 20.576777 26.383254 -15.752364 12.332135 22.434943 17.612964 3.795600 54.917893 8.799448 22.393980 -14.375322 69.124477 10.242572 -19.756982 17.808652 -8.456543 
-0.335867 -0.263926 0.981115 165.989749 3.569587 93.755658 11.504805 6.906127 -13.775448 -4.083035 2.743539 11.434344 2.340132 7.697647 -7.640206 0.000000 -0.000000 0.000000 -5.158726 -3.031889 -19.518705 0.366429 0.483764 17.734561 4.220283 -4.584171 -8.267918 0.000000 -0.000000 0.000000 -4.534729 3.982062 29.086134 -0.632228 -2.745859 -0.221013 -0.110536 0.122011 2.472794 -4.568819 13.845095 7.353155 -0.383346 4.262830 20.723885 -18.841600 -19.752201 -0.925173 -45.199545 -30.495758 9.688436 6.601858 -38.885211 20.519127 26.111501 -15.643111 12.039167 22.295421 17.826673 4.029781 54.081500 8.226150 22.481963 -15.864413 70.831232 9.292109 -19.786983 18.806976 -9.718700 
-0.336044 -0.264060 0.981025 166.167467 3.601761 93.778859 11.500854 6.844814 -13.811679 -4.061807 2.624146 11.347709 2.312795 7.661208 -7.553399 0.000000 -0.000000 0.000000 -5.170251 -3.045387 -19.511499 0.434248 0.459827 17.755066 4.203701 -4.713952 -8.299256 0.000000 -0.000000 0.000000 -4.364622 3.950227 28.983657 -0.598299 -2.875924 -0.070094 -0.169067 -0.045421 2.556860 -4.702974 13.937837 7.681732 -0.372388 4.535463 20.466125 -18.618324 -19.837995 -0.839522 -44.991576 -30.420889 9.610677 6.529629 -38.979862 20.245099 26.613473 -15.637859 11.783455 22.008335 17.581878 3.967191 53.755929 7.954505 22.741370 -15.414824 72.986056 9.594783 -20.880505 18.938668 -10.843258 
-0.336088 -0.263548 0.981016 166.524123 3.671423 93.753826 11.509346 6.824786 -13.772834 -4.035141 2.415253 11.221268 2.272985 7.576269 -7.485364 0.000000 -0.000000 0.000000 -5.146734 -3.241595 -19.260472 0.481930 0.353795 17.590708 4.159263 -4.772995 -8.355787 0.000000 -0.000000 0.000000 -3.994257 3.822231 28.957432 -0.607019 -3.157802 0.001247 -0.361509 -0.177767 2.603461 -4.733210 14.034935 8.139795 -0.378978 4.689988 20.130863 -18.748931 -19.871827 -0.833634 -44.666305 -30.320911 9.373555 6.214186 -38.984033 20.429544 27.612297 -15.845702 11.689774 21.894931 17.256166 3.899773 53.580151 7.682327 22.798587 -13.679776 75.125967 11.725528 -23.599748 19.436421 -11.531058 
